<svg width="48" height="48" viewBox="0 0 24 24" fill="none" stroke="currentColor" stroke-width="2" stroke-linecap="round" stroke-linejoin="round" xmlns="http://www.w3.org/2000/svg">
    <!-- Scaun stânga (mai lat) -->
    <rect x="2" y="3" width="8" height="9" rx="1.5" />
    <rect x="2" y="12" width="8" height="5" rx="1" />
    <line x1="3" y1="17" x2="3" y2="20" />
    <line x1="9" y1="17" x2="9" y2="20" />
    <!-- Tetieră stânga -->
    <path d="M4 4 Q6 3, 8 4" />
    <!-- Cotieră stânga exterior -->
    <line x1="2" y1="10" x2="2" y2="14" />

    <!-- Scaun dreapta (mai lat) -->
    <rect x="14" y="3" width="8" height="9" rx="1.5" />
    <rect x="14" y="12" width="8" height="5" rx="1" />
    <line x1="15" y1="17" x2="15" y2="20" />
    <line x1="21" y1="17" x2="21" y2="20" />
    <!-- Tetieră dreapta -->
    <path d="M16 4 Q18 3, 20 4" />
    <!-- Cotieră dreapta exterior -->
    <line x1="22" y1="10" x2="22" y2="14" />

    <!-- Cotieră centrală comună (mai lată) -->
    <rect x="10" y="9" width="4" height="5" rx="0.5" />

    <!-- Baza/podea -->
    <line x1="2" y1="21" x2="22" y2="21" />
</svg>