<svg width="48" height="48" viewBox="0 0 24 24" fill="none" stroke="currentColor" stroke-width="2" stroke-linecap="round" stroke-linejoin="round" xmlns="http://www.w3.org/2000/svg">
    <!-- Scaun stânga -->
    <rect x="2" y="4" width="5" height="8" rx="1" />
    <rect x="2" y="12" width="5" height="4" rx="0.5" />
    <line x1="3" y1="16" x2="3" y2="20" />
    <line x1="6" y1="16" x2="6" y2="20" />

    <!-- Scaun mijloc -->
    <rect x="9" y="4" width="6" height="8" rx="1" />
    <rect x="9" y="12" width="6" height="4" rx="0.5" />
    <line x1="10" y1="16" x2="10" y2="20" />
    <line x1="14" y1="16" x2="14" y2="20" />

    <!-- Scaun dreapta -->
    <rect x="17" y="4" width="5" height="8" rx="1" />
    <rect x="17" y="12" width="5" height="4" rx="0.5" />
    <line x1="18" y1="16" x2="18" y2="20" />
    <line x1="21" y1="16" x2="21" y2="20" />

    <!-- Cotiere între scaune -->
    <line x1="7" y1="10" x2="9" y2="10" />
    <line x1="15" y1="10" x2="17" y2="10" />

    <!-- Baza/podea -->
    <line x1="2" y1="21" x2="22" y2="21" />
</svg>