<svg width="48" height="48" viewBox="0 0 24 24" fill="none" stroke="currentColor" stroke-width="2" stroke-linecap="round" stroke-linejoin="round" xmlns="http://www.w3.org/2000/svg">
    <!-- Cadru panel -->
    <rect x="2" y="3" width="20" height="18" rx="2" />

    <!-- Ecran principal / Display -->
    <rect x="4" y="5" width="10" height="7" rx="1" />

    <!-- Indicatori pe ecran -->
    <line x1="6" y1="8" x2="8" y2="8" />
    <line x1="10" y1="8" x2="12" y2="8" />

    <!-- Butoane dreapta sus -->
    <circle cx="17" cy="6" r="1" />
    <circle cx="20" cy="6" r="1" />
    <circle cx="17" cy="9" r="1" />
    <circle cx="20" cy="9" r="1" />

    <!-- Switch-uri jos -->
    <rect x="4" y="14" width="3" height="5" rx="0.5" />
    <rect x="9" y="14" width="3" height="5" rx="0.5" />
    <rect x="14" y="14" width="3" height="5" rx="0.5" />

    <!-- Indicator pozitie switch -->
    <line x1="5.5" y1="15" x2="5.5" y2="16" />
    <line x1="10.5" y1="17" x2="10.5" y2="18" />
    <line x1="15.5" y1="15" x2="15.5" y2="16" />

    <!-- LED status -->
    <circle cx="19" cy="15" r="0.5" fill="currentColor" />
    <circle cx="19" cy="17" r="0.5" fill="currentColor" />
</svg>